<svg width="330" height="64" viewBox="0 0 330 64" fill="none" xmlns="http://www.w3.org/2000/svg">
<g clip-path="url(#clip0_3_40)">
<g clip-path="url(#clip1_3_40)">
<path d="M28.0758 18.2702C26.8058 16.8518 26.0158 15.959 23.8354 15.2849C21.6549 14.6108 19.3197 14.6244 17.1473 15.3241C14.9749 16.0237 13.0707 17.3754 11.6934 19.1954C10.3163 21.0152 9.53289 23.2151 9.4498 25.496C7.45572 25.9159 5.63802 26.9365 4.24134 28.4205C2.84471 29.9045 1.93615 31.7807 1.63795 33.7966C1.33974 35.8126 1.66612 37.8715 2.57338 39.6964C3.48056 41.5212 3.6901 42.2252 5.47726 43.2045" stroke="white" stroke-width="2" stroke-linecap="round" stroke-linejoin="round"/>
<path d="M28.1099 18.3035C26.7115 16.4998 24.7915 15.1705 22.611 14.4964C20.4306 13.8223 18.0954 13.8359 15.923 14.5355C13.7506 15.2352 11.8463 16.5869 10.4691 18.4069C9.09194 20.2267 8.30855 22.4266 8.22547 24.7074C6.23138 25.1273 4.41369 26.148 3.01703 27.632C1.62038 29.116 0.71185 30.9922 0.413638 33.0081C0.11544 35.024 0.441952 37.083 1.34906 38.9079C2.25625 40.7327 3.70061 42.2357 5.48777 43.215M20.201 44.4958H37.3958C39.4636 44.4958 41.4467 43.6744 42.9089 42.2122C44.3711 40.7499 45.1926 38.7668 45.1926 36.699C45.197 35.4131 44.8774 34.1468 44.264 33.0166" stroke="#16456A" stroke-width="2" stroke-linecap="round" stroke-linejoin="round"/>
<path d="M41.3855 11.4844C36.0626 11.4844 32.3286 15.6541 32.3286 20.9771C32.3286 26.3001 36.571 30.3972 41.894 30.3972" stroke="white" stroke-width="2" stroke-linecap="round" stroke-linejoin="round"/>
<path d="M40.3896 30.6151C45.7125 30.6151 50.0276 26.3001 50.0276 20.9771C50.0276 15.6541 45.7125 11.3391 40.3896 11.3391C35.0666 11.3391 30.7515 15.6541 30.7515 20.9771C30.7515 26.3001 35.0666 30.6151 40.3896 30.6151Z" stroke="#16456A" stroke-width="2" stroke-linecap="round" stroke-linejoin="round"/>
<path d="M40.3896 0.788513V8.95361M54.6705 6.6962L48.8909 12.4758M60.5781 20.9771H52.4291M54.6705 35.2581L48.8909 29.4945M26.1087 6.6962L31.8883 12.4758" stroke="#16456A" stroke-width="2" stroke-linecap="round" stroke-linejoin="round"/>
<path d="M15.2876 39.222L9.77056 44.4637C9.00328 45.1682 8.42812 46.0564 8.09937 47.0446C7.77047 48.033 7.69877 49.0887 7.89103 50.1123C8.08326 51.1359 8.53307 52.0938 9.19804 52.8954C9.86303 53.697 10.7212 54.3161 11.6917 54.6941L12.2681 54.8703M24.1447 51.7256L20.9935 56.023C20.5151 56.6144 20.1951 57.3176 20.0635 58.0668C19.9319 58.8159 19.993 59.5863 20.2412 60.3052C20.4894 61.0242 20.9165 61.6682 21.4822 62.1767C22.048 62.6851 22.6567 62.9514 23.398 63.1216" stroke="white" stroke-width="2" stroke-linecap="round" stroke-linejoin="round"/>
<path d="M17.8795 46.9132L14.9817 38.0598L8.19353 44.4637C7.42625 45.1682 6.85109 46.0564 6.52231 47.0446C6.19343 48.0329 6.12176 49.0886 6.314 50.1123C6.50625 51.1359 6.95604 52.0937 7.62101 52.8954C8.28598 53.697 9.14415 54.3161 10.1147 54.6941L10.6911 54.8702L11.2994 54.9984C12.3348 55.132 13.3871 54.9992 14.3567 54.6121C15.3263 54.2252 16.1811 53.5972 16.8401 52.7876C17.4991 51.9779 17.9405 51.0134 18.1223 49.9854C18.3042 48.9573 18.2206 47.8999 17.8795 46.9132ZM26.6851 56.6954L23.6592 50.5956L19.4164 56.023C18.9381 56.6143 18.6181 57.3176 18.4865 58.0668C18.3549 58.8159 18.416 59.5863 18.6642 60.3052C18.9124 61.0242 19.3395 61.6682 19.9051 62.1767C20.471 62.6851 21.1567 63.0412 21.898 63.2115H22.7785C23.5379 63.1964 24.2809 62.9889 24.938 62.6081C25.595 62.2274 26.1446 61.6858 26.5351 61.0345C26.9256 60.3831 27.1442 59.6433 27.1704 58.8843C27.1968 58.1254 27.0297 57.3721 26.6851 56.6954Z" stroke="#479FD8" stroke-width="2" stroke-linecap="round" stroke-linejoin="round"/>
</g>
<g clip-path="url(#clip2_3_40)">
<path d="M276.904 15.6319V3.75159H283.995H291.085V5.31478V6.87797H286.006H280.926V10.317V13.756H285.371H289.816V15.3192V16.8824H285.371H280.926V20.6341V24.3858H286.111H291.297V25.9489V27.5121H284.101H276.904V15.6319Z" fill="#231F20"/>
<path d="M251.852 17.1951V6.87797H248.254H244.655V5.31478V3.75159H253.968H263.282V5.31478V6.87797H259.578H255.873V17.1951V27.5121H253.863H251.852V17.1951Z" fill="#231F20"/>
<path d="M217.73 15.6319V3.75159H221.501C225.809 3.75159 227.249 3.95307 229.09 4.81369C231.718 6.04238 233.142 8.39844 232.918 11.1484C232.714 13.6483 231.502 15.3874 229.161 16.5407L227.713 17.2541L228.316 17.8227C228.781 18.2611 234.175 25.9183 234.958 27.2516C235.077 27.4528 234.625 27.5121 232.975 27.5121H230.838L228.176 23.4999C224.698 18.2559 224.169 17.7161 222.503 17.7161H221.752V22.6141V27.5121H219.741H217.73V15.6319ZM226.091 14.5681C229.608 13.6959 230.269 8.9963 227.088 7.4715C226.3 7.09342 225.637 6.97628 223.921 6.91198L221.752 6.83072V10.8145V14.7982H223.457C224.395 14.7982 225.58 14.6947 226.091 14.5681Z" fill="#231F20"/>
<path d="M100.129 15.6319V3.75159H107.219H114.31V5.31478V6.87797H109.23H104.15V10.317V13.756H108.595H113.04V15.3192V16.8824H108.595H104.15V20.6341V24.3858H109.336H114.522V25.9489V27.5121H107.325H100.129V15.6319Z" fill="#231F20"/>
<path d="M68.5781 15.6299V3.70499L73.8168 3.80571C78.4015 3.89385 79.2534 3.96369 80.6414 4.36486C83.7696 5.26911 86.3769 7.11236 87.7826 9.41343C89.7735 12.6724 89.7859 17.8401 87.8116 21.4877C86.9824 23.0197 84.8775 25.0024 83.1897 25.8413C80.5666 27.1453 79.3462 27.3535 73.7109 27.4589L68.5781 27.5551L68.5781 15.6299ZM78.7196 24.0645C82.2892 23.236 84.4572 20.9111 85.1019 17.2204C85.7775 13.3534 84.2637 9.71243 81.3429 8.17946C79.5714 7.24972 77.7828 6.88471 74.9809 6.88105L72.5997 6.87778V15.6316V24.3856L74.9809 24.3823C76.3546 24.3807 77.9365 24.2463 78.7196 24.0645Z" fill="#231F20"/>
<path d="M309.452 27.5013C308.833 27.3922 307.833 27.099 307.23 26.8495C305.924 26.3099 303.913 25.0511 303.77 24.6848C303.714 24.5417 304.113 23.8607 304.657 23.1715L305.645 21.9184L306.57 22.6134C308.117 23.7768 309.661 24.2621 311.848 24.2725C313.552 24.2807 313.857 24.2213 314.74 23.7101C315.506 23.2667 315.809 22.928 316.092 22.199C316.434 21.3149 316.435 21.2049 316.098 20.3378C315.625 19.1178 314.926 18.6274 311.059 16.8017C309.077 15.8664 307.448 14.9441 306.85 14.4194C305.097 12.8818 304.468 10.4804 305.175 8.02656C305.597 6.56391 307.383 4.79731 309.048 4.19536C311.528 3.29894 314.573 3.40851 317.321 4.4931C318.036 4.77515 318.899 5.22496 319.239 5.49261L319.858 5.97925L318.944 7.26234C318.441 7.96802 317.972 8.54479 317.902 8.54404C317.831 8.54327 317.488 8.35436 317.139 8.12424C315.598 7.10911 312.769 6.62814 311.071 7.09263C310.124 7.35161 309.058 8.49444 308.877 9.44516C308.544 11.1941 309.698 12.2748 313.937 14.1845C317.861 15.9525 319.072 16.9004 319.9 18.8526C320.309 19.8163 320.355 21.9533 319.992 23.0615C319.401 24.862 317.761 26.3849 315.611 27.1287C314.194 27.6193 311.163 27.8026 309.452 27.5013Z" fill="#231F20"/>
<path d="M164.322 27.4188C160.059 26.4602 156.635 23.1539 155.569 18.9665C155.167 17.3853 155.225 13.7786 155.681 12.1052C157.048 7.07729 160.996 4.0087 166.605 3.61412C169.492 3.411 173.353 4.39627 175.039 5.7662C175.543 6.17583 175.543 6.17582 174.65 7.56897C174.158 8.3352 173.663 8.96212 173.549 8.96212C173.435 8.96212 173.039 8.73505 172.669 8.45749C170.708 6.98897 167.327 6.49233 164.681 7.28393C163.34 7.68501 162.966 7.91449 161.833 9.03126C160.339 10.5031 159.713 11.852 159.402 14.27C158.869 18.4095 160.724 22.2103 164.016 23.7221C165.066 24.2045 165.494 24.2762 167.338 24.2787C169.767 24.2819 171.067 23.9283 172.764 22.8034C173.353 22.413 173.904 22.1353 173.988 22.1862C174.071 22.2373 174.535 22.8335 175.018 23.5112C175.896 24.7436 175.896 24.7436 175.427 25.1617C173.212 27.1374 167.885 28.22 164.322 27.4188Z" fill="#231F20"/>
<path d="M132.823 27.5013C132.204 27.3922 131.204 27.099 130.601 26.8495C129.296 26.3099 127.284 25.0511 127.141 24.6848C127.085 24.5417 127.484 23.8607 128.028 23.1715L129.016 21.9184L129.941 22.6134C131.489 23.7768 133.032 24.2621 135.219 24.2725C136.924 24.2807 137.228 24.2213 138.111 23.7101C138.877 23.2667 139.18 22.928 139.463 22.199C139.806 21.3149 139.806 21.2049 139.47 20.3378C138.996 19.1178 138.298 18.6274 134.43 16.8017C132.449 15.8664 130.819 14.9441 130.221 14.4194C128.468 12.8818 127.839 10.4804 128.547 8.02656C128.968 6.56391 130.754 4.79731 132.42 4.19536C134.9 3.29894 137.944 3.40851 140.693 4.4931C141.407 4.77515 142.27 5.22496 142.611 5.49261L143.229 5.97925L142.315 7.26234C141.813 7.96802 141.344 8.54479 141.273 8.54404C141.203 8.54327 140.86 8.35436 140.51 8.12424C138.97 7.10911 136.141 6.62814 134.442 7.09263C133.496 7.35161 132.43 8.49444 132.249 9.44516C131.916 11.1941 133.069 12.2748 137.308 14.1845C141.232 15.9525 142.443 16.9004 143.271 18.8526C143.68 19.8163 143.727 21.9533 143.363 23.0615C142.772 24.862 141.132 26.3849 138.983 27.1287C137.566 27.6193 134.534 27.8026 132.823 27.5013Z" fill="#231F20"/>
<path d="M203.44 0.788513V28.3355C190.217 25.3225 183.478 29.0646 176.722 32.7885L203.44 0.788513Z" fill="url(#paint0_linear_3_40)"/>
<g clip-path="url(#clip3_3_40)">
<path d="M323.066 6.59087H322.349V3.80738H321.432V3.21091H323.984V3.80738H323.066V6.59087Z" fill="#231F20"/>
<path d="M325.935 6.59087L325.121 3.93915H325.101C325.13 4.47858 325.144 4.83847 325.144 5.01879V6.59087H324.504V3.21091H325.48L326.28 5.79559H326.293L327.141 3.21091H328.117V6.59087H327.449V4.99105C327.449 4.9155 327.449 4.82842 327.45 4.72981C327.454 4.63116 327.464 4.36915 327.483 3.94379H327.462L326.59 6.59087H325.935Z" fill="#231F20"/>
</g>
</g>
<path d="M73.9219 47.519L77.3203 33.726H79.1601L79.2773 36.6323L75.6445 50.7885H73.6992L73.9219 47.519ZM71.7773 33.726L74.5664 47.4721V50.7885H72.4453L68.5781 33.726H71.7773ZM82.8047 47.4135L85.5469 33.726H88.7578L84.8906 50.7885H82.7695L82.8047 47.4135ZM80.0391 33.726L83.4375 47.5659L83.6367 50.7885H81.6914L78.0703 36.6205L78.2109 33.726H80.0391Z" fill="white"/>
<path d="M105.483 51.0229C104.522 51.0229 103.659 50.8666 102.893 50.5541C102.127 50.2416 101.475 49.808 100.936 49.2534C100.405 48.6909 99.9945 48.0385 99.7055 47.2963C99.4242 46.5463 99.2836 45.7416 99.2836 44.8823V44.4135C99.2836 43.437 99.4242 42.5502 99.7055 41.7534C99.9867 40.9487 100.385 40.2573 100.901 39.6791C101.416 39.101 102.034 38.6557 102.752 38.3432C103.471 38.0307 104.264 37.8745 105.131 37.8745C106.03 37.8745 106.823 38.0268 107.51 38.3315C108.198 38.6284 108.772 39.0502 109.233 39.5971C109.694 40.144 110.041 40.8002 110.276 41.5659C110.51 42.3237 110.627 43.1635 110.627 44.0854V45.3862H100.69V43.2534H107.58V43.019C107.565 42.5268 107.471 42.0776 107.299 41.6713C107.127 41.2573 106.862 40.9291 106.502 40.687C106.143 40.437 105.678 40.312 105.108 40.312C104.647 40.312 104.245 40.4135 103.901 40.6166C103.565 40.812 103.284 41.0932 103.057 41.4604C102.838 41.8198 102.674 42.2495 102.565 42.7495C102.455 43.2495 102.401 43.8041 102.401 44.4135V44.8823C102.401 45.4135 102.471 45.9057 102.612 46.3588C102.76 46.812 102.975 47.2065 103.256 47.5424C103.545 47.8705 103.889 48.1284 104.287 48.3159C104.694 48.4955 105.155 48.5854 105.67 48.5854C106.319 48.5854 106.905 48.4604 107.428 48.2104C107.959 47.9526 108.42 47.5737 108.811 47.0737L110.37 48.6909C110.104 49.0815 109.745 49.4565 109.291 49.8159C108.846 50.1752 108.307 50.4682 107.674 50.6948C107.041 50.9135 106.311 51.0229 105.483 51.0229Z" fill="white"/>
<path d="M129.286 48.0932V42.2455C129.286 41.8159 129.212 41.4448 129.063 41.1323C128.915 40.8198 128.688 40.5776 128.384 40.4057C128.079 40.2338 127.692 40.1479 127.223 40.1479C126.809 40.1479 126.446 40.2182 126.134 40.3588C125.829 40.4995 125.595 40.6987 125.43 40.9565C125.266 41.2065 125.184 41.4955 125.184 41.8237H122.079C122.079 41.3002 122.204 40.8041 122.454 40.3354C122.704 39.8588 123.059 39.437 123.52 39.0698C123.989 38.6948 124.548 38.4018 125.196 38.1909C125.852 37.9799 126.587 37.8745 127.399 37.8745C128.36 37.8745 129.216 38.0385 129.966 38.3666C130.723 38.687 131.317 39.1713 131.747 39.8198C132.184 40.4682 132.403 41.2846 132.403 42.269V47.8002C132.403 48.433 132.442 48.976 132.52 49.4291C132.606 49.8745 132.731 50.2612 132.895 50.5893V50.7885H129.743C129.595 50.4682 129.481 50.062 129.403 49.5698C129.325 49.0698 129.286 48.5776 129.286 48.0932ZM129.72 43.0659L129.743 44.9057H127.786C127.302 44.9057 126.876 44.9565 126.509 45.058C126.141 45.1518 125.841 45.2924 125.606 45.4799C125.372 45.6596 125.196 45.8784 125.079 46.1362C124.962 46.3862 124.903 46.6713 124.903 46.9916C124.903 47.3041 124.973 47.5854 125.114 47.8354C125.262 48.0854 125.473 48.2846 125.747 48.433C126.028 48.5737 126.356 48.644 126.731 48.644C127.278 48.644 127.755 48.5346 128.161 48.3159C128.567 48.0893 128.884 47.8159 129.11 47.4955C129.337 47.1752 129.458 46.8705 129.473 46.5815L130.364 47.9174C130.255 48.2377 130.091 48.5776 129.872 48.937C129.653 49.2963 129.372 49.6323 129.028 49.9448C128.684 50.2573 128.27 50.5151 127.786 50.7182C127.302 50.9213 126.739 51.0229 126.098 51.0229C125.278 51.0229 124.544 50.8588 123.895 50.5307C123.247 50.2026 122.735 49.7534 122.36 49.183C121.985 48.6127 121.798 47.9643 121.798 47.2377C121.798 46.5659 121.923 45.9721 122.173 45.4565C122.423 44.9409 122.794 44.5073 123.286 44.1557C123.778 43.7963 124.387 43.5268 125.114 43.3471C125.848 43.1596 126.688 43.0659 127.634 43.0659H129.72Z" fill="white"/>
<path d="M150.792 38.1088V40.3354H143.527V38.1088H150.792ZM145.472 34.9916H148.577V47.1323C148.577 47.5073 148.628 47.7963 148.73 47.9995C148.831 48.2026 148.984 48.3393 149.187 48.4096C149.39 48.4799 149.632 48.5151 149.913 48.5151C150.116 48.5151 150.304 48.5034 150.476 48.4799C150.648 48.4565 150.792 48.433 150.909 48.4096L150.921 50.7299C150.663 50.8159 150.37 50.8862 150.042 50.9409C149.722 50.9955 149.359 51.0229 148.952 51.0229C148.257 51.0229 147.648 50.9057 147.124 50.6713C146.601 50.4291 146.195 50.0424 145.905 49.5112C145.616 48.9721 145.472 48.2612 145.472 47.3784V34.9916Z" fill="white"/>
<path d="M165.49 32.7885V50.7885H162.384V32.7885H165.49ZM164.998 43.9916H164.084C164.084 43.1088 164.201 42.2963 164.435 41.5541C164.67 40.812 165.002 40.1674 165.431 39.6205C165.861 39.0659 166.373 38.6362 166.966 38.3315C167.568 38.0268 168.232 37.8745 168.959 37.8745C169.584 37.8745 170.15 37.9643 170.658 38.144C171.173 38.3159 171.615 38.5932 171.982 38.976C172.349 39.3588 172.63 39.8588 172.826 40.476C173.029 41.0854 173.13 41.8276 173.13 42.7026V50.7885H170.013V42.6791C170.013 42.0932 169.927 41.6323 169.755 41.2963C169.584 40.9526 169.337 40.7065 169.017 40.558C168.705 40.4096 168.318 40.3354 167.857 40.3354C167.357 40.3354 166.927 40.433 166.568 40.6284C166.209 40.8159 165.912 41.0776 165.677 41.4135C165.451 41.7495 165.279 42.1362 165.162 42.5737C165.052 43.0112 164.998 43.4838 164.998 43.9916Z" fill="white"/>
<path d="M191.156 51.0229C190.195 51.0229 189.332 50.8666 188.566 50.5541C187.801 50.2416 187.148 49.808 186.609 49.2534C186.078 48.6909 185.668 48.0385 185.379 47.2963C185.098 46.5463 184.957 45.7416 184.957 44.8823V44.4135C184.957 43.437 185.098 42.5502 185.379 41.7534C185.66 40.9487 186.059 40.2573 186.574 39.6791C187.09 39.101 187.707 38.6557 188.426 38.3432C189.145 38.0307 189.937 37.8745 190.805 37.8745C191.703 37.8745 192.496 38.0268 193.184 38.3315C193.871 38.6284 194.445 39.0502 194.906 39.5971C195.367 40.144 195.715 40.8002 195.949 41.5659C196.184 42.3237 196.301 43.1635 196.301 44.0854V45.3862H186.363V43.2534H193.254V43.019C193.238 42.5268 193.145 42.0776 192.973 41.6713C192.801 41.2573 192.535 40.9291 192.176 40.687C191.816 40.437 191.352 40.312 190.781 40.312C190.32 40.312 189.918 40.4135 189.574 40.6166C189.238 40.812 188.957 41.0932 188.73 41.4604C188.512 41.8198 188.348 42.2495 188.238 42.7495C188.129 43.2495 188.074 43.8041 188.074 44.4135V44.8823C188.074 45.4135 188.145 45.9057 188.285 46.3588C188.434 46.812 188.648 47.2065 188.93 47.5424C189.219 47.8705 189.562 48.1284 189.961 48.3159C190.367 48.4955 190.828 48.5854 191.344 48.5854C191.992 48.5854 192.578 48.4604 193.102 48.2104C193.633 47.9526 194.094 47.5737 194.484 47.0737L196.043 48.6909C195.777 49.0815 195.418 49.4565 194.965 49.8159C194.52 50.1752 193.98 50.4682 193.348 50.6948C192.715 50.9135 191.984 51.0229 191.156 51.0229Z" fill="white"/>
<path d="M211.069 40.6987V50.7885H207.975V38.1088H210.905L211.069 40.6987ZM214.924 38.0268L214.877 40.9096C214.705 40.8784 214.51 40.8549 214.291 40.8393C214.08 40.8237 213.881 40.8159 213.694 40.8159C213.217 40.8159 212.799 40.8823 212.44 41.0151C212.08 41.1401 211.78 41.3237 211.537 41.5659C211.303 41.808 211.123 42.1049 210.998 42.4565C210.873 42.8002 210.803 43.1909 210.787 43.6284L210.12 43.5463C210.12 42.7416 210.202 41.9955 210.366 41.308C210.53 40.6205 210.768 40.019 211.08 39.5034C211.393 38.9877 211.784 38.5893 212.252 38.308C212.729 38.019 213.276 37.8745 213.893 37.8745C214.065 37.8745 214.248 37.8901 214.444 37.9213C214.647 37.9448 214.807 37.9799 214.924 38.0268Z" fill="white"/>
</g>
<defs>
<linearGradient id="paint0_linear_3_40" x1="204.708" y1="33.1915" x2="204.708" y2="0.630603" gradientUnits="userSpaceOnUse">
<stop stop-color="#0082C9"/>
<stop offset="1" stop-color="#00A5E5" stop-opacity="0.996078"/>
</linearGradient>
<clipPath id="clip0_3_40">
<rect width="329.388" height="62.423" fill="white" transform="translate(0.306274 0.788513)"/>
</clipPath>
<clipPath id="clip1_3_40">
<rect width="60.2718" height="62.423" fill="white" transform="translate(0.306274 0.788513)"/>
</clipPath>
<clipPath id="clip2_3_40">
<rect width="259.539" height="32" fill="white" transform="translate(68.5781 0.788513)"/>
</clipPath>
<clipPath id="clip3_3_40">
<rect width="6.68523" height="3.37996" fill="white" transform="translate(321.432 3.21091)"/>
</clipPath>
</defs>
</svg>
